<svg id="184105172" viewBox="0 0 383.6002595765535 36.16592173834782" height="36.16592173834782" width="383.6002595765535" style="width: 383.6px; height: 36.1659px; position: absolute; top: 50%; left: 50%; transform: translate(-50%, -50%) scale(0.93196); z-index: 0; cursor: pointer; overflow: visible;">
    <defs id="SvgjsDefs1001"></defs>
    <g id="SvgjsG1007" featurekey="nameLeftFeature-0" transform="matrix(1.35028076171875,0,0,1.35028076171875,-2.376494881350416,0.6004622033940183)" fill="#404b69">
        <path d="M6.06 5.84 q2.28 0 3.55 0.98 t1.31 2.9 q0 1.86 -1.24 2.87 t-3.32 1.05 l-2.92 0 l0 6.36 l-1.68 0 l0 -14.16 l4.3 0 z M6.36 12.08 q1.28 0 2.02 -0.62 t0.74 -1.72 t-0.73 -1.72 t-2.03 -0.62 l-2.92 0 l0 4.68 l2.92 0 z M20.2 5.48 q3.2 0 5.28 2.1 t2.12 5.34 q-0.02 3.3 -2.14 5.36 t-5.26 2.08 q-3.2 0 -5.28 -2.11 t-2.12 -5.33 q0 -3.2 2.08 -5.3 t5.32 -2.14 z M14.6 12.92 q0 2.54 1.6 4.19 t4 1.69 q2.4 0 3.98 -1.68 t1.62 -4.2 q0 -2.46 -1.56 -4.15 t-4.06 -1.73 q-2.44 0.02 -3.99 1.71 t-1.59 4.17 z M32.8 5.84 l4.8 11.1 l0.04 0 l4.84 -11.1 l2.44 0 l0 14.16 l-1.68 0 l0 -11.88 l-0.04 0 l-5.08 11.88 l-1.02 0 l-5.08 -11.88 l-0.04 0 l0 11.88 l-1.68 0 l0 -14.16 l2.5 0 z M52.74 5.84 q2.28 0 3.55 0.98 t1.31 2.9 q0 1.86 -1.24 2.87 t-3.32 1.05 l-2.92 0 l0 6.36 l-1.68 0 l0 -14.16 l4.3 0 z M53.04 12.08 q1.28 0 2.02 -0.62 t0.74 -1.72 t-0.73 -1.72 t-2.03 -0.62 l-2.92 0 l0 4.68 l2.92 0 z M69.2 5.84 l0 1.56 l-7.22 0 l0 4.44 l6.74 0 l0 1.56 l-6.74 0 l0 5.04 l7.58 0 l0 1.56 l-9.26 0 l0 -14.16 l8.9 0 z M73.78 5.84 l0 8.52 q0 2.16 0.92 3.28 t2.74 1.16 q1.82 -0.02 2.73 -1.15 t0.93 -3.21 l0 -8.6 l1.68 0 l0 8.82 q0 2.7 -1.4 4.19 t-3.94 1.51 q-2.5 0 -3.91 -1.51 t-1.43 -4.21 l0 -8.8 l1.68 0 z"></path>
    </g>
    <g id="SvgjsG1008" featurekey="inlineSymbolFeature-0" transform="matrix(1.506913423538208,0,0,1.506913423538208,125.98617318847101,0)" fill="#404b69">
        <path xmlns="http://www.w3.org/2000/svg" d="M11.5,9C11.224,9,11,9.224,11,9.5V13c0,1.103,0.897,2,2,2c1.103,0,2-0.897,2-2V9.5C15,7.57,13.43,6,11.5,6S8,7.57,8,9.5V13  c0,2.757,2.243,5,5,5s5-2.243,5-5V9.5C18,6.467,15.533,4,12.5,4S7,6.467,7,9.5V13c0,3.309,2.691,6,6,6s6-2.691,6-6V9.5  C19,8.673,18.327,8,17.5,8S16,8.673,16,9.5V13c0,0.552-0.448,1-1,1s-1-0.448-1-1V9.5C14,9.224,13.776,9,13.5,9z"></path>
    </g>
    <g id="SvgjsG1009" featurekey="nameRightFeature-0" transform="matrix(0.504598081111908,0,0,0.504598081111908,163.14034190156045,11.7687805947118)" fill="#404b69">
        <path d="M0.86 6.08 q0 -0.34 0.22 -0.56 t0.58 -0.22 t0.58 0.22 t0.22 0.56 l0 9.16 q0 0.34 -0.22 0.56 t-0.58 0.22 t-0.58 -0.22 t-0.22 -0.56 l0 -9.16 z M8.08 15.9 q0.46 0 0.7 0.22 t0.24 0.6 q0 0.38 -0.24 0.6 t-0.7 0.22 l-4.6 0 q-0.46 0 -0.7 -0.22 t-0.24 -0.6 q0 -0.38 0.24 -0.6 t0.7 -0.22 l4.6 0 z M8.92 6.36 q0.38 0 0.6 0.24 t0.22 0.66 q0 0.4 -0.22 0.64 t-0.6 0.24 l-5.2 0 q-0.38 0 -0.6 -0.24 t-0.22 -0.64 q0 -0.42 0.22 -0.66 t0.6 -0.24 l5.2 0 z M13.64 6.08 q0 -0.34 0.22 -0.56 t0.58 -0.22 t0.58 0.22 t0.22 0.56 l0 6.96 l5.16 0 l0 -6.96 q0 -0.34 0.22 -0.56 t0.58 -0.22 t0.58 0.22 t0.22 0.56 l0 9.16 q0 0.34 -0.22 0.56 t-0.58 0.22 l-6.54 0 q-0.34 0 -0.56 -0.22 t-0.22 -0.56 l0 -9.16 z M34.46 6.08 q0 -0.34 0.22 -0.56 t0.58 -0.22 t0.58 0.22 t0.22 0.56 l0 4.8 q0 1.02 -0.18 1.68 t-0.68 1.2 t-1.2 0.68 t-1.68 0.18 l-2.38 0 l0 2.52 q0 0.34 -0.22 0.56 t-0.58 0.22 t-0.58 -0.22 t-0.22 -0.56 l0 -9.16 q0 -0.34 0.22 -0.56 t0.58 -0.22 l3.58 0 q1.02 0 1.68 0.18 t1.2 0.68 t0.68 1.2 t0.18 1.68 l0 4.8 q0 0.34 -0.22 0.56 t-0.58 0.22 t-0.58 -0.22 t-0.22 -0.56 l0 -4.8 q0 -0.38 -0.08 -0.74 t-0.28 -0.6 t-0.56 -0.36 t-0.88 -0.1 l-2.52 0 l0 8.6 q0 0.34 -0.22 0.56 t-0.58 0.22 t-0.58 -0.22 t-0.22 -0.56 l0 -9.16 z M43.6 6.36 q0.38 0 0.6 0.24 t0.22 0.66 q0 0.4 -0.22 0.64 t-0.6 0.24 l-5.2 0 q-0.38 0 -0.6 -0.24 t-0.22 -0.64 q0 -0.42 0.22 -0.66 t0.6 -0.24 l5.2 0 z M44.78 6.08 q0 -0.34 0.22 -0.56 t0.58 -0.22 t0.58 0.22 t0.22 0.56 l0 6.96 l5.16 0 l0 -6.96 q0 -0.34 0.22 -0.56 t0.58 -0.22 t0.58 0.22 t0.22 0.56 l0 9.16 q0 0.34 -0.22 0.56 t-0.58 0.22 l-6.54 0 q-0.34 0 -0.56 -0.22 t-0.22 -0.56 l0 -9.16 z M63.16 6.36 q0.38 0 0.6 0.24 t0.22 0.66 q0 0.4 -0.22 0.64 t-0.6 0.24 l-5.2 0 q-0.38 0 -0.6 -0.24 t-0.22 -0.64 q0 -0.42 0.22 -0.66 t0.6 -0.24 l5.2 0 z"></path>
    </g>
</svg>